<mxfile host="app.diagrams.net" modified="2023-03-31T17:23:59.007Z" agent="Mozilla/5.0 (X11; Linux x86_64) AppleWebKit/537.36 (KHTML, like Gecko) Chrome/101.0.0.0 Safari/537.36" etag="0On5j0lDDTkadTZTJJBJ" version="21.1.2" type="github">
  <diagram name="App components" id="lCMRPWak-l99gqr__HIk">
    <mxGraphModel dx="813" dy="2799" grid="1" gridSize="10" guides="1" tooltips="1" connect="1" arrows="1" fold="1" page="1" pageScale="1" pageWidth="1654" pageHeight="2336" math="0" shadow="0">
      <root>
        <mxCell id="0" />
        <mxCell id="1" parent="0" />
        <mxCell id="uBTQGI4SKc7psDHaQZI_-4" value="" style="ellipse;whiteSpace=wrap;html=1;" parent="1" vertex="1">
          <mxGeometry x="360" y="80" width="360" height="200" as="geometry" />
        </mxCell>
        <mxCell id="ZEpah68i9C4C2sU9uKjD-15" value="" style="ellipse;whiteSpace=wrap;html=1;" parent="1" vertex="1">
          <mxGeometry x="840" y="-270" width="430" height="250" as="geometry" />
        </mxCell>
        <mxCell id="4o0hdnLatyUBeNMG3Ewm-8" value="" style="ellipse;whiteSpace=wrap;html=1;" parent="1" vertex="1">
          <mxGeometry y="-200" width="340" height="300" as="geometry" />
        </mxCell>
        <mxCell id="4o0hdnLatyUBeNMG3Ewm-1" value="Telegram chat history" style="rounded=0;whiteSpace=wrap;html=1;" parent="1" vertex="1">
          <mxGeometry x="40" y="-140" width="120" height="60" as="geometry" />
        </mxCell>
        <mxCell id="4o0hdnLatyUBeNMG3Ewm-2" value="Telegram chat UI" style="rounded=0;whiteSpace=wrap;html=1;" parent="1" vertex="1">
          <mxGeometry x="30" y="-40" width="120" height="60" as="geometry" />
        </mxCell>
        <mxCell id="4o0hdnLatyUBeNMG3Ewm-3" value="Telegram API" style="rounded=0;whiteSpace=wrap;html=1;" parent="1" vertex="1">
          <mxGeometry x="200" y="-80" width="120" height="60" as="geometry" />
        </mxCell>
        <mxCell id="4o0hdnLatyUBeNMG3Ewm-11" value="welllog telegram&lt;br&gt;chat-bot" style="rounded=0;whiteSpace=wrap;html=1;" parent="1" vertex="1">
          <mxGeometry x="490" y="100" width="120" height="60" as="geometry" />
        </mxCell>
        <mxCell id="4o0hdnLatyUBeNMG3Ewm-12" value="" style="endArrow=classic;startArrow=classic;html=1;rounded=0;exitX=1;exitY=0.5;exitDx=0;exitDy=0;entryX=0;entryY=0.5;entryDx=0;entryDy=0;" parent="1" source="4o0hdnLatyUBeNMG3Ewm-3" target="4o0hdnLatyUBeNMG3Ewm-11" edge="1">
          <mxGeometry width="50" height="50" relative="1" as="geometry">
            <mxPoint x="380" y="160" as="sourcePoint" />
            <mxPoint x="430" y="110" as="targetPoint" />
          </mxGeometry>
        </mxCell>
        <mxCell id="ZEpah68i9C4C2sU9uKjD-6" value="" style="endArrow=classic;html=1;rounded=0;entryX=0;entryY=0.5;entryDx=0;entryDy=0;exitX=1;exitY=0.5;exitDx=0;exitDy=0;" parent="1" source="4o0hdnLatyUBeNMG3Ewm-11" target="uBTQGI4SKc7psDHaQZI_-3" edge="1">
          <mxGeometry width="50" height="50" relative="1" as="geometry">
            <mxPoint x="760" y="120" as="sourcePoint" />
            <mxPoint x="930" y="70" as="targetPoint" />
          </mxGeometry>
        </mxCell>
        <mxCell id="ZEpah68i9C4C2sU9uKjD-16" value="Log server" style="text;html=1;strokeColor=none;fillColor=none;align=center;verticalAlign=middle;whiteSpace=wrap;rounded=0;" parent="1" vertex="1">
          <mxGeometry x="1137" y="-200" width="60" height="30" as="geometry" />
        </mxCell>
        <mxCell id="ZEpah68i9C4C2sU9uKjD-17" value="Telegram" style="text;html=1;strokeColor=none;fillColor=none;align=center;verticalAlign=middle;whiteSpace=wrap;rounded=0;" parent="1" vertex="1">
          <mxGeometry x="200" y="-150" width="60" height="30" as="geometry" />
        </mxCell>
        <mxCell id="uBTQGI4SKc7psDHaQZI_-1" value="Internals" style="rounded=0;whiteSpace=wrap;html=1;" parent="1" vertex="1">
          <mxGeometry x="990" y="-170" width="120" height="60" as="geometry" />
        </mxCell>
        <mxCell id="uBTQGI4SKc7psDHaQZI_-3" value="Data post API" style="rounded=0;whiteSpace=wrap;html=1;" parent="1" vertex="1">
          <mxGeometry x="800" y="-120" width="120" height="60" as="geometry" />
        </mxCell>
        <mxCell id="uBTQGI4SKc7psDHaQZI_-5" value="Telegram chat-bot server" style="text;html=1;strokeColor=none;fillColor=none;align=center;verticalAlign=middle;whiteSpace=wrap;rounded=0;" parent="1" vertex="1">
          <mxGeometry x="470" y="190" width="130" height="30" as="geometry" />
        </mxCell>
        <mxCell id="uBTQGI4SKc7psDHaQZI_-7" value="" style="endArrow=classic;startArrow=classic;html=1;rounded=0;exitX=1;exitY=0.5;exitDx=0;exitDy=0;entryX=0;entryY=0.5;entryDx=0;entryDy=0;" parent="1" source="uBTQGI4SKc7psDHaQZI_-3" target="uBTQGI4SKc7psDHaQZI_-1" edge="1">
          <mxGeometry width="50" height="50" relative="1" as="geometry">
            <mxPoint x="960" y="-180" as="sourcePoint" />
            <mxPoint x="1010" y="-230" as="targetPoint" />
          </mxGeometry>
        </mxCell>
        <mxCell id="lsLtu1hy2NUm3BbJYPla-1" value="Database" style="ellipse;whiteSpace=wrap;html=1;" parent="1" vertex="1">
          <mxGeometry x="1007" y="-430" width="190" height="110" as="geometry" />
        </mxCell>
        <mxCell id="lsLtu1hy2NUm3BbJYPla-3" value="" style="endArrow=classic;html=1;rounded=0;exitX=0.5;exitY=0;exitDx=0;exitDy=0;" parent="1" source="uBTQGI4SKc7psDHaQZI_-1" target="lsLtu1hy2NUm3BbJYPla-1" edge="1">
          <mxGeometry width="50" height="50" relative="1" as="geometry">
            <mxPoint x="1120" y="-250" as="sourcePoint" />
            <mxPoint x="1170" y="-300" as="targetPoint" />
          </mxGeometry>
        </mxCell>
      </root>
    </mxGraphModel>
  </diagram>
</mxfile>
